<svg xmlns="http://www.w3.org/2000/svg" width="16" height="16" viewBox="0 0 16 16"><path d="M 3.4570312 1 A 0.50004994 0.50004994 0 0 0 3.5078125 2 L 4.0078125 2 L 4.0078125 2.5 C 4.0051701 2.499986 4.0026454 2.5 4 2.5 C 3.1774952 2.5 2.4999999 3.1775 2.5 4 C 2.5 4.2682933 2.5774331 4.5173729 2.703125 4.7363281 C 2.2772324 5.1608144 2.0078125 5.7366827 2.0078125 6.375 L 2.0078125 7.4179688 A 0.50004994 0.50004994 0 0 0 2.0078125 7.5820312 L 2.0078125 11.417969 A 0.50004994 0.50004994 0 0 0 2.0078125 11.582031 L 2.0078125 12.625 C 2.0078125 13.9499 3.1482181 15 4.5078125 15 C 5.8674069 15 7.0078125 13.9499 7.0078125 12.625 L 7.0078125 11.578125 A 0.50004994 0.50004994 0 0 0 7.0078125 11.417969 L 7.0078125 7.578125 A 0.50004994 0.50004994 0 0 0 7.0078125 7.4179688 L 7.0078125 6.375 C 7.0078125 5.3854545 6.3661172 4.5572837 5.4785156 4.1992188 C 5.4876232 4.1329776 5.5 4.0685648 5.5 4 L 7 4 C 7.5626488 4 8 4.4374 8 5 L 8 7.9648438 A 0.50004994 0.50004994 0 0 0 8 8 L 8 11 L 8 13 C 8 14.0994 8.9006483 15 10 15 C 11.099351 15 12 14.0994 12 13 L 12 8.4042969 C 12.57513 8.1937115 12.992188 7.6440315 12.992188 7 C 12.992188 6.1775 12.314692 5.5 11.492188 5.5 C 10.669683 5.5 9.9921874 6.1775 9.9921875 7 C 9.9921874 7.6496417 10.417072 8.2018579 11 8.4082031 L 11 13 C 11 13.5627 10.562647 14 10 14 C 9.4373507 14 9 13.5627 9 13 L 9 11.033203 A 0.50004994 0.50004994 0 0 0 9 11 L 9 8 L 9 5 C 9 3.9007 8.0993514 3 7 3 L 5.1074219 3 C 5.0753899 2.9645797 5.0430173 2.930703 5.0078125 2.8984375 A 0.50004994 0.50004994 0 0 0 5.0078125 2.859375 L 5.0078125 2 L 5.5078125 2 A 0.50004994 0.50004994 0 1 0 5.5078125 1 L 3.5078125 1 A 0.50004994 0.50004994 0 0 0 3.4570312 1 z M 4 3.5 C 4.2820647 3.5 4.5 3.718 4.5 4 C 4.5 4.111567 4.4590511 4.2070862 4.4003906 4.2890625 C 4.3620259 4.3425525 4.3141138 4.3858962 4.2597656 4.4199219 C 4.2483926 4.4268444 4.2385503 4.435394 4.2265625 4.4414062 C 4.1654984 4.4730509 4.0978317 4.4896917 4.0273438 4.4941406 C 4.0177004 4.4946608 4.0098048 4.5 4 4.5 C 3.9951641 4.5 3.9911255 4.4981742 3.9863281 4.4980469 C 3.8918899 4.4945756 3.8007444 4.462109 3.7226562 4.4082031 C 3.5903339 4.3195092 3.5 4.1760111 3.5 4 C 3.5 3.718 3.7179353 3.5 4 3.5 z M 4.9902344 5.1132812 C 5.5855378 5.3009654 6.0078125 5.7821276 6.0078125 6.3769531 L 6.0078125 7 L 3.0078125 7 L 3.0078125 6.3769531 C 3.0078125 5.9825903 3.2390457 5.6662832 3.5390625 5.4179688 C 3.680451 5.4645442 3.8286543 5.4963778 3.984375 5.4980469 C 3.9892184 5.4982666 3.9931508 5.5019362 3.9980469 5.5019531 L 4 5.5019531 C 4.0076803 5.5019415 4.0139133 5.4983316 4.0214844 5.4980469 C 4.3927212 5.4925953 4.7298383 5.3451595 4.9902344 5.1132812 z M 11.492188 6.5 C 11.774252 6.5 11.992187 6.718 11.992188 7 C 11.992188 7.2702782 11.790226 7.4769017 11.525391 7.4941406 A 0.50004994 0.50004994 0 0 0 11.464844 7.4941406 C 11.197066 7.4796977 10.992187 7.272294 10.992188 7 C 10.992187 6.718 11.210123 6.5 11.492188 6.5 z M 3.0078125 8 L 6.0078125 8 L 6.0078125 11 L 3.0078125 11 L 3.0078125 8 z M 3.0078125 12 L 6.0078125 12 L 6.0078125 12.626953 C 6.0078125 13.379353 5.3642181 14.001953 4.5078125 14.001953 C 3.6514069 14.001953 3.0078125 13.379353 3.0078125 12.626953 L 3.0078125 12 z " color="#000" font-family="sans-serif" font-weight="400" overflow="visible" white-space="normal" style="line-height:normal;text-indent:0;text-align:start;text-decoration-line:none;text-decoration-style:solid;text-decoration-color:#000;text-transform:none;block-progression:tb;isolation:auto;mix-blend-mode:normal"/></svg>