<svg xmlns="http://www.w3.org/2000/svg" data-name="Layer 1" viewBox="0 0 32 32"><path d="M20.5,28a.5.5,0,1,0-.5-.5A.5.5,0,0,0,20.5,28ZM3,27v1a1,1,0,0,0,1,1H14a1,1,0,0,0,1-1V27a1,1,0,0,0-1-1H4A1,1,0,0,0,3,27Zm1,0H14v1h0v0H4Zm24.5-5A2.5,2.5,0,0,0,31,19.5V3.5A2.5,2.5,0,0,0,28.5,1H3.5A2.5,2.5,0,0,0,1,3.5v16A2.5,2.5,0,0,0,3.5,22H5v2H3.5A2.5,2.5,0,0,0,1,26.5v2A2.5,2.5,0,0,0,3.5,31h25A2.5,2.5,0,0,0,31,28.5v-2A2.5,2.5,0,0,0,28.5,24H27V22Zm0,3A1.5,1.5,0,0,1,30,26.5v2A1.5,1.5,0,0,1,28.5,30H3.5A1.5,1.5,0,0,1,2,28.5v-2A1.5,1.5,0,0,1,3.5,25ZM6,24V22H8v2Zm3,0V22H23v2Zm15,0V22h2v2ZM3.5,21A1.5,1.5,0,0,1,2,19.5V3.5A1.5,1.5,0,0,1,3.5,2h25A1.5,1.5,0,0,1,30,3.5v16A1.5,1.5,0,0,1,28.5,21Zm19,7a.5.5,0,1,0-.5-.5A.5.5,0,0,0,22.5,28Zm2,0a.5.5,0,1,0-.5-.5A.5.5,0,0,0,24.5,28ZM29,5.5A2.5,2.5,0,0,0,26.5,3H5.5A2.5,2.5,0,0,0,3,5.5v12A2.5,2.5,0,0,0,5.5,20h21A2.5,2.5,0,0,0,29,17.5Zm-1,12A1.5,1.5,0,0,1,26.5,19H5.5A1.5,1.5,0,0,1,4,17.5V12H5.43l1.74,4.69a.49.49,0,0,0,.54.32.5.5,0,0,0,.43-.45l.57-7.64L9.86,13a.5.5,0,0,0,.86.2l1-1.2L13,11.77a.55.55,0,0,0,.35-.28l.38-.85.5,1.14a.53.53,0,0,0,.35.29l1.09.24,2.41,5a.51.51,0,0,0,.45.28h.11a.5.5,0,0,0,.39-.49V9l1.49,4.29a.48.48,0,0,0,.31.31.52.52,0,0,0,.44,0l.83-.56H23.3a.49.49,0,0,0,.47-.34l.6-1.79.55,1.78a.5.5,0,0,0,.48.35H28ZM28,12H25.77l-.91-2.91a.5.5,0,0,0-.48-.35.47.47,0,0,0-.47.34l-1,2.92h-1a.54.54,0,0,0-.28.08l-.42.29L19,5.88A.5.5,0,0,0,18,6v8.85l-1.57-3.24a.51.51,0,0,0-.34-.27L15,11.15l-.85-1.93a.44.44,0,0,0-.46-.3.52.52,0,0,0-.46.29l-.73,1.63-1.14.25a.5.5,0,0,0-.27.16l-.53.62-1.67-6a.5.5,0,0,0-.53-.37A.51.51,0,0,0,7.92,6l-.61,8.19L6.25,11.33A.5.5,0,0,0,5.78,11H4V5.5A1.5,1.5,0,0,1,5.5,4h21A1.5,1.5,0,0,1,28,5.5Zm-.5,17A1.5,1.5,0,1,0,26,27.5,1.5,1.5,0,0,0,27.5,29Zm0-2a.5.5,0,1,1-.5.5A.5.5,0,0,1,27.5,27Z"/></svg>