<svg xmlns="http://www.w3.org/2000/svg" width="48" height="48" viewBox="0 0 48 48"><path fill-rule="evenodd" d="M 24 0 C 10.751088 0 0 10.7511 0 24 C 0 37.2489 10.751088 48 24 48 C 37.248912 48 48 37.2489 48 24 C 48 10.7511 37.248912 0 24 0 z M 24 1 C 36.708472 1 47 11.2916 47 24 C 47 36.7085 36.708472 47 24 47 C 11.291528 47 1 36.7085 1 24 C 1 11.2916 11.291528 1 24 1 z M 16.978516 18 A 0.50005 0.50005 0 0 0 16.542969 18.306641 L 14.164062 23.998047 L 9.5039062 23.998047 A 0.50005 0.50005 0 1 0 9.5039062 24.998047 L 14.496094 24.998047 A 0.50005 0.50005 0 0 0 14.957031 24.691406 L 16.951172 19.921875 L 20.529297 30.65625 A 0.50005 0.50005 0 0 0 21.472656 30.673828 L 23.59375 24.998047 L 26.003906 24.998047 A 0.50005 0.50005 0 0 0 26.427734 24.763672 L 28.345703 21.6875 L 30.527344 28.648438 A 0.50005 0.50005 0 0 0 31.427734 28.763672 L 33.773438 24.998047 L 38.496094 24.998047 A 0.50005 0.50005 0 1 0 38.496094 23.998047 L 33.496094 23.998047 A 0.50005 0.50005 0 0 0 33.072266 24.234375 L 31.154297 27.310547 L 28.974609 20.349609 A 0.50005 0.50005 0 0 0 28.072266 20.234375 L 25.726562 23.998047 L 23.246094 23.998047 A 0.50005 0.50005 0 0 0 22.777344 24.324219 L 21.03125 28.998047 L 17.478516 18.341797 A 0.50005 0.50005 0 0 0 16.978516 18 z " color="#000" font-family="sans-serif" font-weight="400" overflow="visible" white-space="normal" style="line-height:normal;text-indent:0;text-align:start;text-decoration-line:none;text-decoration-style:solid;text-decoration-color:#000;text-transform:none;block-progression:tb;isolation:auto;mix-blend-mode:normal"/></svg>