<svg xmlns="http://www.w3.org/2000/svg" width="" height="" data-name="Layer 1" viewBox=""><path d="M13.62573 8.00513a1.99944 1.99944 0 0 0-1.86426 2.127l.24316 3.69769a1.99955 1.99955 0 0 0 1.99365 1.86865q.06592 0 .1333-.00439a1.99944 1.99944 0 0 0 1.86426-2.127l-.24316-3.69769A1.98906 1.98906 0 0 0 13.62573 8.00513zM5.24591 23.52307l-3.5249.49707a2.00026 2.00026 0 0 0 .27686 3.9809 2.046 2.046 0 0 0 .28174-.02l3.5249-.49707a2 2 0 0 0-.55859-3.96088zM4.92023 13.175a2 2 0 0 0-2.58691 3.05078l3.768 3.19434a2 2 0 1 0 2.58691-3.05078zM114.37378 8.00513a2.01321 2.01321 0 0 0-2.12689 1.86426l-.24316 3.69769a2.00022 2.00022 0 0 0 1.86523 2.127c.04395.00293.08887.00439.13281.00439a2.00066 2.00066 0 0 0 1.99408-1.86865l.24316-3.69769A2.00022 2.00022 0 0 0 114.37378 8.00513zM126.279 24.02014l-3.52533-.49707a2 2 0 1 0-.55859 3.96088l3.52539.49707a2.04225 2.04225 0 0 0 .28223.02 2.00026 2.00026 0 0 0 .27631-3.9809zM121.89819 19.4201l3.76758-3.19434a1.99965 1.99965 0 1 0-2.58594-3.05078l-3.76758 3.19434a1.99965 1.99965 0 1 0 2.58594 3.05078zM59.06494 92.355A5.49558 5.49558 0 0 0 62.99951 94H63a5.49456 5.49456 0 0 0 3.93555-1.645L83.76514 75.323A25.0327 25.0327 0 0 1 80.262 73.17694L64.09033 89.543a1.52852 1.52852 0 0 1-2.17969.00049L27.445 54.66437c-9.50629-9.62-9.89935-25.28979-.87646-34.92981a24.11449 24.11449 0 0 1 17.413-7.73138q.16919-.0022.3374-.00244a24.07966 24.07966 0 0 1 17.25824 7.24017 2.05894 2.05894 0 0 0 2.84521 0 24.21653 24.21653 0 0 1 40.71411 10.91516 25.00389 25.00389 0 0 1 4.55426 2.63428A28.207 28.207 0 0 0 63 15.0827a28.20945 28.20945 0 0 0-39.35138 1.91846C13.17554 28.19 13.60278 46.34711 24.59979 57.47589z"/><path d="M94.99988 32.00055a20.99982 20.99982 0 1 0 20.99988 20.99982A20.99976 20.99976 0 0 0 94.99988 32.00055zm0 37.99963a16.99985 16.99985 0 1 1 16.99994-16.99982A17.0191 17.0191 0 0 1 94.99988 70.00018zM38.84436 23.58606a2.00074 2.00074 0 0 0-2.82861.00049 16.884 16.884 0 0 0-5.01416 12.2489 17.62236 17.62236 0 0 0 5.623 12.61658 1.9998 1.9998 0 1 0 2.751-2.90326 13.65787 13.65787 0 0 1-4.37451-9.768 12.91642 12.91642 0 0 1 3.84375-9.36609A2.0003 2.0003 0 0 0 38.84436 23.58606z"/><path d="M101.58582 43.58636L97.58032 47.5918a6.02233 6.02233 0 1 0 2.82813 2.82813l4.00543-4.00543a1.99976 1.99976 0 0 0-2.82806-2.82812zM94.99988 55.00031a2 2 0 1 1 2-1.99994A2.00224 2.00224 0 0 1 94.99988 55.00031zM101.00037 108.93579H98.68115c-1.28192-4.07556-6.38812-7.04083-12.68079-7.04083s-11.39886 2.96527-12.68079 7.04083h-36.456A12.88146 12.88146 0 0 1 24.00031 96.06567V62.6839l-2.36823-2.39667c-.57172-.57855-1.10974-1.17694-1.63177-1.784V96.06567a16.89741 16.89741 0 0 0 16.86328 16.89343h36.456C74.60156 117.03461 79.70776 120 86.00037 120s11.3988-2.96539 12.68079-7.04089h2.31921a2.01169 2.01169 0 0 0 0-4.02332zm-15 7.04083c-5.30371 0-9-2.65063-9-5.02917s3.69629-5.02917 9-5.02917 9 2.65063 9 5.02917S91.30408 115.97662 86.00037 115.97662z"/><circle cx="30" cy="96.029" r="2"/><circle cx="32.31" cy="101.329" r="2"/><circle cx="38.154" cy="102.941" r="2"/><circle cx="44" cy="102.941" r="2"/></svg>